{
  "accessors": [
    {
      "bufferView": 1,
      "componentType": 5126,
      "count": 4657,
      "max": [
        1.1629799604415894,
        6.5101199150085449,
        5.2591800689697266
      ],
      "min": [
        -1.1629799604415894,
        -1.6810100078582764,
        -0.58370000123977661
      ],
      "type": "VEC3"
    },
    {
      "bufferView": 1,
      "byteOffset": 55884,
      "componentType": 5126,
      "count": 4657,
      "max": [
        0.99999600648880005,
        0.99987775087356567,
        0.99999517202377319
      ],
      "min": [
        -0.9999958872795105,
        -0.99921643733978271,
        -0.99999517202377319
      ],
      "type": "VEC3"
    },
    {
      "bufferView": 0,
      "componentType": 5125,
      "count": 25152,
      "max": [
        4656
      ],
      "min": [
        0
      ],
      "type": "SCALAR"
    },
    {
      "bufferView": 1,
      "byteOffset": 111768,
      "componentType": 5126,
      "count": 3377,
      "max": [
        1.0692199468612671,
        5.5189199447631836,
        5.2354497909545898
      ],
      "min": [
        -1.0692199468612671,
        -1.6592700481414795,
        -0.48800000548362732
      ],
      "type": "VEC3"
    },
    {
      "bufferView": 1,
      "byteOffset": 152292,
      "componentType": 5126,
      "count": 3377,
      "max": [
        0.999980628490448,
        0.99997156858444214,
        0.99999481439590454
      ],
      "min": [
        -0.999980628490448,
        -0.99998658895492554,
        -0.99999481439590454
      ],
      "type": "VEC3"
    },
    {
      "bufferView": 0,
      "byteOffset": 100608,
      "componentType": 5125,
      "count": 17472,
      "max": [
        3376
      ],
      "min": [
        0
      ],
      "type": "SCALAR"
    },
    {
      "bufferView": 1,
      "byteOffset": 192816,
      "componentType": 5126,
      "count": 4126,
      "max": [
        1.9434100389480591,
        1.4236700534820557,
        3.1098699569702148
      ],
      "min": [
        -0.84325999021530151,
        -6.3529801368713379,
        -4.9352197647094727
      ],
      "type": "VEC3"
    },
    {
      "bufferView": 1,
      "byteOffset": 242328,
      "componentType": 5126,
      "count": 4126,
      "max": [
        0.99544155597686768,
        0.99902379512786865,
        0.99982845783233643
      ],
      "min": [
        -0.99917596578598022,
        -0.99953538179397583,
        -0.99973106384277344
      ],
      "type": "VEC3"
    },
    {
      "bufferView": 0,
      "byteOffset": 170496,
      "componentType": 5125,
      "count": 16860,
      "max": [
        4125
      ],
      "min": [
        0
      ],
      "type": "SCALAR"
    },
    {
      "bufferView": 1,
      "byteOffset": 291840,
      "componentType": 5126,
      "count": 1562,
      "max": [
        1.877810001373291,
        1.342210054397583,
        2.7158899307250977
      ],
      "min": [
        0.14645999670028687,
        -6.1803498268127441,
        -4.7600598335266113
      ],
      "type": "VEC3"
    },
    {
      "bufferView": 1,
      "byteOffset": 310584,
      "componentType": 5126,
      "count": 1562,
      "max": [
        0.99681556224822998,
        0.99902379512786865,
        0.99959349632263184
      ],
      "min": [
        -0.99284005165100098,
        -0.99665522575378418,
        -0.99664789438247681
      ],
      "type": "VEC3"
    },
    {
      "bufferView": 0,
      "byteOffset": 237936,
      "componentType": 5125,
      "count": 6612,
      "max": [
        1561
      ],
      "min": [
        0
      ],
      "type": "SCALAR"
    },
    {
      "bufferView": 1,
      "byteOffset": 329328,
      "componentType": 5126,
      "count": 3042,
      "max": [
        3.3830199241638184,
        3.154059886932373,
        0.1877100020647049
      ],
      "min": [
        -4.2649998664855957,
        -0.06453000009059906,
        -1.2289199829101562
      ],
      "type": "VEC3"
    },
    {
      "bufferView": 1,
      "byteOffset": 365832,
      "componentType": 5126,
      "count": 3042,
      "max": [
        0.99586200714111328,
        0.9972262978553772,
        1
      ],
      "min": [
        -0.99586153030395508,
        -0.99908798933029175,
        -1
      ],
      "type": "VEC3"
    },
    {
      "bufferView": 0,
      "byteOffset": 264384,
      "componentType": 5125,
      "count": 17232,
      "max": [
        3041
      ],
      "min": [
        0
      ],
      "type": "SCALAR"
    },
    {
      "bufferView": 1,
      "byteOffset": 402336,
      "componentType": 5126,
      "count": 464,
      "max": [
        3.1873500347137451,
        0.74330002069473267,
        -0.35506001114845276
      ],
      "min": [
        -4.0693302154541016,
        -0.13005000352859497,
        -0.89648997783660889
      ],
      "type": "VEC3"
    },
    {
      "bufferView": 1,
      "byteOffset": 407904,
      "componentType": 5126,
      "count": 464,
      "max": [
        0.89714515209197998,
        0.97838693857192993,
        0.99979645013809204
      ],
      "min": [
        -0.89714515209197998,
        -0.99853163957595825,
        -0.9916803240776062
      ],
      "type": "VEC3"
    },
    {
      "bufferView": 0,
      "byteOffset": 333312,
      "componentType": 5125,
      "count": 1776,
      "max": [
        463
      ],
      "min": [
        0
      ],
      "type": "SCALAR"
    }
  ],
  "asset": {
    "extras": {
      "author": "torchwurm (https://sketchfab.com/torchwurm)",
      "license": "CC-BY-4.0 (http://creativecommons.org/licenses/by/4.0/)",
      "source": "https://sketchfab.com/3d-models/scorpion-blender-sculpt-43af3be3fabd4b28aa48387b9236e82c",
      "title": "Scorpion (Blender Sculpt)"
    },
    "generator": "Sketchfab-6.24.0",
    "version": "2.0"
  },
  "bufferViews": [
    {
      "buffer": 0,
      "byteLength": 340416,
      "byteOffset": 0,
      "name": "floatBufferViews",
      "target": 34963
    },
    {
      "buffer": 0,
      "byteLength": 413472,
      "byteOffset": 340416,
      "byteStride": 12,
      "name": "floatBufferViews",
      "target": 34962
    }
  ],
  "buffers": [
    {
      "byteLength": 753888,
      "uri": "scene.bin"
    }
  ],
  "materials": [
    {
      "doubleSided": true,
      "emissiveFactor": [
        0,
        0,
        0
      ],
      "name": "Material.004",
      "pbrMetallicRoughness": {
        "baseColorFactor": [
          0.61517757179999999,
          0.61517757179999999,
          0.61517757179999999,
          1
        ],
        "metallicFactor": 0,
        "roughnessFactor": 0.59999999999999998
      }
    },
    {
      "doubleSided": true,
      "emissiveFactor": [
        0,
        0,
        0
      ],
      "name": "Material.005",
      "pbrMetallicRoughness": {
        "baseColorFactor": [
          0,
          0,
          0,
          1
        ],
        "metallicFactor": 0,
        "roughnessFactor": 0.59999999999999998
      }
    },
    {
      "doubleSided": true,
      "emissiveFactor": [
        0,
        0,
        0
      ],
      "name": "Material.002",
      "pbrMetallicRoughness": {
        "baseColorFactor": [
          0.61517733340000003,
          0.61517733340000003,
          0.61517733340000003,
          1
        ],
        "metallicFactor": 0,
        "roughnessFactor": 0.59999999999999998
      }
    },
    {
      "doubleSided": true,
      "name": "Material.003",
      "pbrMetallicRoughness": {
        "baseColorFactor": [
          0,
          0,
          0,
          1
        ],
        "metallicFactor": 0,
        "roughnessFactor": 0.59999999999999998
      }
    },
    {
      "doubleSided": true,
      "emissiveFactor": [
        0,
        0,
        0
      ],
      "name": "Material",
      "pbrMetallicRoughness": {
        "baseColorFactor": [
          0.61517733340000003,
          0.61517733340000003,
          0.61517733340000003,
          1
        ],
        "metallicFactor": 0,
        "roughnessFactor": 0.59999999999999998
      }
    },
    {
      "doubleSided": true,
      "name": "Material.001",
      "pbrMetallicRoughness": {
        "baseColorFactor": [
          0,
          0,
          0,
          1
        ],
        "metallicFactor": 0,
        "roughnessFactor": 0.59999999999999998
      }
    }
  ],
  "meshes": [
    {
      "name": "Cube",
      "primitives": [
        {
          "attributes": {
            "NORMAL": 1,
            "POSITION": 0
          },
          "indices": 2,
          "material": 4,
          "mode": 4
        }
      ]
    },
    {
      "name": "Cube",
      "primitives": [
        {
          "attributes": {
            "NORMAL": 4,
            "POSITION": 3
          },
          "indices": 5,
          "material": 5,
          "mode": 4
        }
      ]
    },
    {
      "name": "Cylinder.003",
      "primitives": [
        {
          "attributes": {
            "NORMAL": 7,
            "POSITION": 6
          },
          "indices": 8,
          "material": 2,
          "mode": 4
        }
      ]
    },
    {
      "name": "Cylinder.003",
      "primitives": [
        {
          "attributes": {
            "NORMAL": 10,
            "POSITION": 9
          },
          "indices": 11,
          "material": 3,
          "mode": 4
        }
      ]
    },
    {
      "name": "Cylinder.004",
      "primitives": [
        {
          "attributes": {
            "NORMAL": 13,
            "POSITION": 12
          },
          "indices": 14,
          "material": 0,
          "mode": 4
        }
      ]
    },
    {
      "name": "Cylinder.004",
      "primitives": [
        {
          "attributes": {
            "NORMAL": 16,
            "POSITION": 15
          },
          "indices": 17,
          "material": 1,
          "mode": 4
        }
      ]
    }
  ],
  "nodes": [
    {
      "children": [
        1
      ],
      "name": "RootNode (gltf orientation matrix)",
      "rotation": [
        -0.70710678118654746,
        -0,
        -0,
        0.70710678118654757
      ]
    },
    {
      "children": [
        2
      ],
      "name": "RootNode (model correction matrix)"
    },
    {
      "children": [
        3,
        6,
        9
      ],
      "name": "Root"
    },
    {
      "children": [
        4,
        5
      ],
      "name": "Cube"
    },
    {
      "mesh": 0,
      "name": "Cube"
    },
    {
      "mesh": 1,
      "name": "Cube"
    },
    {
      "children": [
        7,
        8
      ],
      "matrix": [
        0,
        0,
        -1,
        0,
        -0.27258000000000004,
        0.96213000000000004,
        -0,
        0,
        0.96213000000000004,
        0.27258000000000004,
        0,
        0,
        0.28798000000000007,
        5.0932000000000004,
        -0.11654000000000002,
        1
      ],
      "name": "Cylinder.003"
    },
    {
      "mesh": 2,
      "name": "Cylinder.003"
    },
    {
      "mesh": 3,
      "name": "Cylinder.003"
    },
    {
      "children": [
        10,
        11
      ],
      "matrix": [
        1,
        0,
        0,
        0,
        0,
        1,
        0,
        0,
        0,
        0,
        1,
        0,
        0.44440000000000007,
        5.4521499999999996,
        -0.0052200000000000007,
        1
      ],
      "name": "Cylinder.004"
    },
    {
      "mesh": 4,
      "name": "Cylinder.004"
    },
    {
      "mesh": 5,
      "name": "Cylinder.004"
    }
  ],
  "scene": 0,
  "scenes": [
    {
      "name": "OSG_Scene",
      "nodes": [
        0
      ]
    }
  ]
}

